<?xml version="1.0" encoding="UTF-8" standalone="no"?>
<!-- Created with Inkscape (http://www.inkscape.org/) -->

<svg
   width="300"
   height="300"
   viewBox="0 0 79.374998 79.375"
   version="1.1"
   id="svg1"
   inkscape:version="1.3.2 (091e20ef0f, 2023-11-25)"
   sodipodi:docname="logo.svg"
   xmlns:inkscape="http://www.inkscape.org/namespaces/inkscape"
   xmlns:sodipodi="http://sodipodi.sourceforge.net/DTD/sodipodi-0.dtd"
   xmlns="http://www.w3.org/2000/svg"
   xmlns:svg="http://www.w3.org/2000/svg">
  <sodipodi:namedview
     id="namedview1"
     pagecolor="#ffffff"
     bordercolor="#000000"
     borderopacity="0.25"
     inkscape:showpageshadow="2"
     inkscape:pageopacity="0.0"
     inkscape:pagecheckerboard="0"
     inkscape:deskcolor="#d1d1d1"
     inkscape:document-units="mm"
     inkscape:zoom="2.9151902"
     inkscape:cx="164.48326"
     inkscape:cy="151.61961"
     inkscape:window-width="2490"
     inkscape:window-height="1376"
     inkscape:window-x="0"
     inkscape:window-y="0"
     inkscape:window-maximized="1"
     inkscape:current-layer="layer1" />
  <defs
     id="defs1">
    <rect
       x="74.865295"
       y="107.96067"
       width="175.6262"
       height="83.999424"
       id="rect2" />
  </defs>
  <g
     inkscape:label="Layer 1"
     inkscape:groupmode="layer"
     id="layer1">
    <text
       xml:space="preserve"
       transform="scale(0.26458333)"
       id="text2"
       style="font-size:29.3333px;white-space:pre;shape-inside:url(#rect2);display:inline;fill:#000000" />
    <text
       xml:space="preserve"
       style="font-size:19.7556px;letter-spacing:-0.529167px;word-spacing:0px;fill:#000000;fill-opacity:0.8;stroke-width:0.165"
       x="15.9777"
       y="46.166649"
       id="text1"><tspan
         sodipodi:role="line"
         id="tspan1"
         style="font-style:normal;font-variant:normal;font-weight:normal;font-stretch:normal;font-size:19.7556px;font-family:'Quicksand Medium';-inkscape-font-specification:'Quicksand Medium, ';fill:#000000;fill-opacity:0.8;stroke-width:0.165"
         x="15.9777"
         y="46.166649">stud.io</tspan></text>
    <path
       fill="currentColor"
       d="m 8.2235942,32.881273 a 4.5868205,4.5868205 0 0 0 -4.5868199,4.58682 c 0,1.559518 0.7797591,2.929011 1.9657803,3.761192 v 1.480889 a 0.65526008,0.65526008 0 0 0 0.6552592,0.655259 h 3.9315602 a 0.65526008,0.65526008 0 0 0 0.655259,-0.655259 v -1.480889 c 1.186022,-0.832181 1.965781,-2.201674 1.965781,-3.761192 A 4.5868205,4.5868205 0 0 0 8.2235942,32.881273 M 6.2578138,45.331214 a 0.65526008,0.65526008 0 0 0 0.6552593,0.655259 h 2.6210421 a 0.65526008,0.65526008 0 0 0 0.6552588,-0.655259 v -0.65526 H 6.2578138 Z"
       id="path1"
       style="stroke-width:0.655259;fill:#000000;fill-opacity:0.80452359" />
  </g>
</svg>
